<svg width="135" height="24" viewBox="0 0 135 24" fill="none" xmlns="http://www.w3.org/2000/svg">
<path fill-rule="evenodd" clip-rule="evenodd" d="M135 22.6747C135 22.733 134.56 23.1746 133.678 24L124.565 14.9305L115.451 24C115.393 24 114.953 23.5584 114.129 22.6747L123.173 13.5351L114.129 4.39561C114.129 4.33728 114.57 3.89564 115.451 3.06984L124.565 12.1398L133.678 3.06984C133.736 3.06984 134.177 3.51191 135 4.39561L125.956 13.5351L135 22.6747ZM113.635 15.3488H96.591V15.4188C96.591 16.6629 97.3097 18.1282 98.7472 19.814C100.336 21.3027 102.098 22.0468 104.035 22.0468H105.009C105.101 22.0584 105.148 22.1047 105.148 22.1859V23.8604C105.148 23.9538 105.101 24 105.009 24H103.756C100.684 24 98.0401 22.4188 95.8257 19.2557C94.9906 17.5933 94.573 16.105 94.573 14.7909V13.9534C94.573 10.8724 96.1502 8.22125 99.3039 6.00011C100.962 5.16264 102.446 4.74434 103.756 4.74434H104.591C107.664 4.74434 110.307 6.32593 112.522 9.48825C113.357 11.1515 113.775 12.6398 113.775 13.9534V15.2092C113.775 15.3025 113.728 15.3488 113.635 15.3488ZM111.757 13.3256C111.757 12.0815 111.038 10.6165 109.6 8.93037C108.012 7.44212 106.249 6.69756 104.313 6.69756H104.035C101.136 6.69756 98.8864 8.13958 97.2865 11.0232C96.8224 12.0119 96.591 12.8022 96.591 13.3956H111.757V13.3256ZM92.3052 24H73.3825C73.2894 24 73.2433 23.9538 73.2433 23.8604V4.88392C73.2545 4.79101 73.301 4.74434 73.3825 4.74434H75.0518C75.1445 4.75601 75.191 4.80268 75.191 4.88392V22.0468H92.3052C92.3978 22.0584 92.4444 22.1047 92.4444 22.1859V23.8604C92.4444 23.9538 92.3978 24 92.3052 24ZM58.3483 24C54.3943 24 51.287 22.1164 49.0261 18.3491C48.191 16.7212 47.7739 15.0696 47.7739 13.3956C47.7739 9.43035 49.6522 6.31383 53.4088 4.04645C55.032 3.20942 56.6785 2.79069 58.3483 2.79069C62.3022 2.79069 65.4095 4.67434 67.6704 8.44207C68.5055 10.0699 68.9231 11.7211 68.9231 13.3956C68.9231 17.3608 67.0443 20.4769 63.2877 22.7442C61.6641 23.5813 60.018 24 58.3483 24ZM66.9051 13.8839V12.9068C66.9051 10.2445 65.5138 7.91876 62.731 5.9301C61.2353 5.18641 59.9366 4.81392 58.8352 4.81392H57.8613C55.2061 4.81392 52.887 6.20926 50.9044 8.99995C50.1619 10.4999 49.7914 11.8023 49.7914 12.9068V13.8839C49.7914 16.5466 51.1828 18.8724 53.9655 20.8606C55.4612 21.6047 56.7595 21.9768 57.8613 21.9768H58.8352C61.4904 21.9768 63.8095 20.5814 65.7921 17.7907C66.5341 16.2908 66.9051 14.9888 66.9051 13.8839ZM43.6622 15.3488H26.6178V15.4188C26.6178 16.6629 27.3365 18.1282 28.7745 19.814C30.3628 21.3027 32.1252 22.0468 34.0617 22.0468H35.0355C35.1281 22.0584 35.1747 22.1047 35.1747 22.1859V23.8604C35.1747 23.9538 35.1281 24 35.0355 24H33.7833C30.7105 24 28.0669 22.4188 25.8525 19.2557C25.0174 17.5933 24.5999 16.105 24.5999 14.7909V13.9534C24.5999 10.8724 26.177 8.22125 29.3308 6.00011C30.9889 5.16264 32.4729 4.74434 33.7833 4.74434H34.618C37.6907 4.74434 40.3343 6.32593 42.5492 9.48825C43.3838 11.1515 43.8014 12.6398 43.8014 13.9534V15.2092C43.8014 15.3025 43.7548 15.3488 43.6622 15.3488ZM41.7839 13.3256C41.7839 12.0815 41.0647 10.6165 39.6272 8.93037C38.0385 7.44212 36.2761 6.69756 34.34 6.69756H34.0617C31.1625 6.69756 28.9132 8.13958 27.3133 11.0232C26.8496 12.0119 26.6178 12.8022 26.6178 13.3956H41.7839V13.3256ZM1.94812 5.0235V11.9302C1.94812 12.0236 1.90158 12.0698 1.80893 12.0698H0.139182C0.0465376 12.0698 0 12.0236 0 11.9302V0H0.0698064L17.2534 18.9769V12.0698C17.265 11.9769 17.3116 11.9302 17.3926 11.9302H19.0623C19.155 11.9419 19.2015 11.9885 19.2015 12.0698V24H19.1317L1.94812 5.0235Z" fill="#007AFF"/>
</svg>
